<svg xmlns="http://www.w3.org/2000/svg" width="340" height="512"><path fill="#aa8c7f" d="M0 0h340v512H0z"/><g fill-opacity=".501961"><path fill="#fff" d="M-31-23l56 246L165 11z"/><path fill="#9d2e4f" d="M-3 195l374 30-208 318z"/><path fill="#29740e" d="M371 315l-120-46 16-228z"/><path fill="#e8ffff" d="M247 169l-66 36 50-236z"/><path fill="#8a0057" d="M79 487l214 56-52-148z"/><path fill="#d7f0e6" d="M63 543L29 243l-60 134z"/><path fill="#a1c037" d="M187 367l144-76 40 226z"/><path fill="#f2ffff" d="M-31 159l126 22L39-27z"/><path fill="#6dc03a" d="M11 267l126-104-156 36z"/><path fill="#ba3381" d="M263 261L59 445 47 213z"/><path fill="#f3b3a7" d="M187 393l146-88-74-16z"/><path fill="#ebffff" d="M233-31l6 76 36-14z"/><path fill="#fcffff" d="M185 1L87 93 39 65z"/><path fill="#d49e61" d="M85 453l44-86 228-32z"/><path fill="#779767" d="M49 77L5 117l74-10z"/><path fill="#b4b7b9" d="M-31 513l52-142 108 164z"/><path fill="#7cac69" d="M225 71l124 170-16-272z"/><path fill="#67a528" d="M369 361l-8 148-114-116z"/><path fill="#681537" d="M111 379l44-28-76-80z"/><path fill="#42551e" d="M343 61l-90 28 26 36z"/><path fill="#c2945c" d="M117 53l88 116-126 20z"/><path fill="#4e8834" d="M153 73l72-34-36-36z"/><path fill="#ebf5f8" d="M285 37l56 4-68 22z"/><path fill="#9b592c" d="M83 475l70-84 166-24z"/><path fill="#f9ffff" d="M181 139l66-32-14 70z"/><path fill="#487e35" d="M75 15l18 18-36 20z"/><path fill="#95b76a" d="M265 57l14 182-58-16z"/><path fill="#96452e" d="M173 225l-44 8 48-140z"/><path fill="#475d00" d="M313 143l-28 62-44-30z"/><path fill="#f7fffb" d="M91 159L-9 63l44 134z"/><path fill="#f2ccb5" d="M135 65l100 38-118-6z"/><path fill="#a7d0aa" d="M175 61L55-31h136z"/><path fill="#370924" d="M307 347l-8-22h-40z"/><path fill="#23360c" d="M337 303l-36-60 70-54z"/><path fill="#709c6d" d="M59 19l-90 6v-40z"/><path fill="#fdffff" d="M117 65L57-29l88 72z"/><path fill="#aec3bf" d="M273 449l8 76 90-4z"/><path fill="#d5649a" d="M213 193l-88 90 134-16z"/><path fill="#ace77b" d="M275 287l70 28-14 82z"/><path fill="#fff" d="M293 139l38-18-24-6z"/><path fill="#9e1751" d="M229 349l-82 16 92-104z"/><path fill="#da1349" d="M235 489l-102 26-40-28z"/><path fill="#d0afce" d="M177 457l-16-10 2 62z"/><path fill="#dce0be" d="M43 271L25 411l-56-160z"/><path fill="#c3bebb" d="M229 355l-76 38-38-16z"/><path fill="#d73070" d="M83 413L39 289l8 126z"/><path fill="#fff" d="M-19 83L7 29l106 40z"/><path fill="#212172" d="M85 385l18 24-32 20z"/><path fill="#1c3a77" d="M147 535l-14-58 18-36z"/><path fill="#51402b" d="M161 49l-30 8 78 28z"/></g></svg>