<svg xmlns="http://www.w3.org/2000/svg" width="680" height="1024"><path fill="#aa8c7f" d="M0 0h680v1024H0z"/><g fill-opacity=".502"><path fill="#fff" d="M46 446L334 26-62-58z"/><path fill="#9e2d4e" d="M318 1086L10 394l732 52z"/><path fill="#2c7611" d="M742 626l-240-80 28-480z"/><path fill="#e8ffff" d="M502 338l-132 68 88-468z"/><path fill="#8b0258" d="M582 1086l-92-304-336 200z"/><path fill="#daf3ea" d="M-62 714L58 498l64 588z"/><path fill="#a2bf38" d="M374 730l368 312-88-464z"/><path fill="#f3ffff" d="M186 366l-248-56L82-62z"/><path fill="#ba3481" d="M114 886l428-356-444-96z"/><path fill="#6bbe37" d="M258 322L26 546l-72-132z"/><path fill="#f0b1a4" d="M530 578L346 790l336-172z"/><path fill="azure" d="M546 70L486-38 450 98z"/><path fill="#f6ffff" d="M182 178L410-22 70 130z"/><path fill="#d29b5e" d="M250 738l-96 180 572-252z"/><path fill="#789969" d="M-6 242l104-84 64 52z"/><path fill="#b6b8ba" d="M34 742l244 344-340-36z"/><path fill="#2c6715" d="M622 98l-80 164 140-140z"/><path fill="#66a828" d="M510 794l212-84 16 328z"/><path fill="#5b1131" d="M170 558l56 200 72-60z"/><path fill="#668b4e" d="M450 82l-264 96L394 2z"/><path fill="#8fb564" d="M518 118l-68 336 120 24z"/><path fill="#9d4523" d="M346 458V194l-68 216z"/><path fill="#fff" d="M370 282l108-64-16 140z"/><path fill="#8dbd82" d="M650 454L526-6l216-20z"/><path fill="#350014" d="M602 690l-8-32-96-12z"/><path fill="#4f853d" d="M130 18l60 28-60 56z"/><path fill="#9e5834" d="M126 818l72 120 436-200z"/><path fill="#fecbb1" d="M418 190l-136-64-48 76z"/><path fill="#a4c8a3" d="M362 122L210 22l124-84z"/><path fill="#f9fffd" d="M6 162l180 156-112 72z"/><path fill="#1b3206" d="M674 602l56-216-120 100z"/><path fill="#d3639a" d="M286 562l244-16-116-172z"/><path fill="#920025" d="M442 702l36-104-60-80z"/><path fill="#344b00" d="M518 326l108-28-92 104z"/><path fill="#6c9a69" d="M-58 50l-4-76 172 60z"/><path fill="#fff" d="M-6-34L302 94 170-18z"/><path fill="#e3eeeb" d="M566 82l-28 52 140-52z"/><path fill="#c6a15e" d="M230 142l-76 240 168-8z"/><path fill="#c9bbb2" d="M274 734l168-12-200 92z"/><path fill="#aec4be" d="M546 1086l196-48-188-136z"/><path fill="#47501f" d="M614 214h-80L662 90z"/><path fill="#c0a5cc" d="M258 906l84 24 88-28z"/><path fill="#dee5bb" d="M82 762L-62 518l136 16z"/><path fill="#fff" d="M-10 226L130 74-2 62z"/><path fill="#ca82ab" d="M218 498L42 518l148-112z"/><path fill="#db1f52" d="M498 974H186l80 68z"/><path fill="#0d3377" d="M298 886v152l-32-96z"/><path fill="#a7e974" d="M742 666l-96 100-92-196z"/><path fill="#84a977" d="M454 130l76-68 20 260z"/><path fill="#2e3657" d="M310 802l4-128 48 116z"/><path fill="#042899" d="M210 814l-44-40v68z"/><path fill="#e53573" d="M74 578l84 212-56 52z"/><path fill="#fff" d="M582 286l40-56 20 12z"/><path fill="#714b1d" d="M346 206l80 40-188-20z"/><path fill="#1c1960" d="M462 914l24 112 56 4z"/><path fill="#e0cdec" d="M118 590l44 64-44-132z"/><path fill="#ffb3a1" d="M210 286l104-76 16 60z"/><path fill="#bba8c7" d="M342 990l-12-100-24 160z"/><path fill="#df9d65" d="M434 806l-200-4-112 88z"/><path fill="#d4aad0" d="M178 750l-12-96 68 156z"/><path fill="#799b5a" d="M26 310l-88 180 164 52z"/><path fill="#18366c" d="M410 950l-36-40v156z"/><path fill="#d30226" d="M430 846l16 240 36-88z"/><path fill="#b8bee4" d="M222 1026l236-20-176 80z"/><path fill="#a31950" d="M402 630l68 64-244 44z"/><path fill="#3d154d" d="M338 866l140-68 20 44z"/><path fill="#82c02d" d="M194 230l-40 204 60-52z"/><path fill="#5a3233" d="M322 98l52 52-120-32z"/><path fill="#e6c4c1" d="M486 594l-32 44 168-32z"/><path fill="#a0b15c" d="M542 470l152-272 44 148z"/><path fill="#95be8e" d="M374 142l8 204 80-316z"/><path fill="#ff3264" d="M326 674L222 450l32 188z"/><path fill="#5a568f" d="M182 598l228-32-112 52z"/><path fill="#ff2447" d="M390 614l-72-112 48 156z"/><path fill="#faffff" d="M398 98l40 116 12-44z"/><path fill="#5c413e" d="M210 178l36-52-32 108z"/><path fill="#cc0324" d="M382 998l-48 12 8-160z"/><path fill="#ff1b47" d="M162 650l-24-108 76 140z"/><path fill="#6f437c" d="M390 494l-180-84 56 112z"/><path fill="#effaf5" d="M194 42l-64 128L358 66z"/><path fill="#514992" d="M182 730l-72-48-24-96z"/><path fill="#fff" d="M-62 282l248 12-48 56z"/><path fill="#093100" d="M550 506h-44l52 72z"/><path fill="#475294" d="M458 454l20 128 28-20z"/><path fill="#c092b4" d="M438 890l-8 64-28-132z"/><path fill="#eef9f3" d="M398 330l64-124 76 36z"/><path fill="#d1a7ce" d="M246 570l-36-12-8-104z"/><path fill="#b9d195" d="M274 346l216 100-24-68z"/><path fill="#d8e2f7" d="M286 682l4-32-24-28z"/><path fill="#5b8436" d="M354 26l12 104 76-52z"/><path fill="#749738" d="M506 342l-4 164-56-144z"/><path fill="#700017" d="M326 458l8-96 28 64z"/><path fill="#e4f4ed" d="M458 362l80-64-152 60z"/><path fill="#b1b0a8" d="M126 826l72 260-260-200z"/><path fill="#dcc2df" d="M370 494l44 48-56-108z"/><path fill="#c0e06d" d="M82 538l-144-36 112 96z"/><path fill="#c5093f" d="M426 502l8 80-64-140z"/><path fill="#cbafcc" d="M238 578l148-36-84-4z"/><path fill="#5c8034" d="M566 106l-100 32 72-64z"/><path fill="#f61f51" d="M190 486l60-36-152 28z"/><path fill="#90a271" d="M522 314l-76-8 168-72z"/><path fill="#d9cfe1" d="M110 730L62 602l-84-40z"/><path fill="#98c4e7" d="M350 774l-4-40-56 32z"/><path fill="#ae3572" d="M554 958l-68-208-12 224z"/><path fill="#597b07" d="M662 250l80 96-84-36z"/><path fill="#e8749d" d="M526 654l-48-184 100 168z"/><path fill="#69438d" d="M106 766l-28-64 12 120z"/><path fill="#fb1648" d="M190 562l36 52v56z"/><path fill="#3f2965" d="M174 674l76 28 96-24z"/><path fill="#687952" d="M546-62l44 140 56-20z"/><path fill="#f1fcf6" d="M214 22l-76 136 64 80z"/><path fill="#a8ba9d" d="M430 202l96-40 8-68z"/><path fill="#94b577" d="M206 294l-20-84-48 68z"/><path fill="#f40026" d="M110 794l24-20 20 80z"/><path fill="#576794" d="M158 406l-20 36 60 92z"/><path fill="#91c0ec" d="M502 910l-28-12 48 56z"/><path fill="#6f8c5a" d="M162 98l-44-56 52-12z"/><path fill="#ed3848" d="M282 458l44-12 28 104z"/><path fill="#ff0012" d="M130 574l52 4-36-32z"/><path fill="#6c300b" d="M302 214l-40-12 16 48z"/><path fill="#98408a" d="M246 906l-64 180 4-164z"/><path fill="#7c9959" d="M342 42L134-46l184 4z"/><path fill="#d78965" d="M414 798l68-184 132 104z"/><path fill="#524f89" d="M362 558l48 124-12-120z"/><path fill="#da80aa" d="M298 558l4-80 64 176z"/><path fill="#d71142" d="M430 442l32 120 8-52z"/><path fill="#472000" d="M370 790l-56-8-4 36z"/><path fill="#6a0e02" d="M234 906l100-40-20 36z"/><path fill="#fff" d="M98 238l-160 16v140z"/><path fill="#536912" d="M550 278l76 8-48 124z"/><path fill="#e5ebec" d="M666 86l-84 16 52-40z"/><path fill="#cad1b7" d="M618 322l44-60-36 116z"/><path fill="#2d3652" d="M466 642l-12 40-20-100z"/><path fill="#a2c7ec" d="M110 782l24-32 32-4z"/><path fill="#ecbbd7" d="M234 958l12 84-20-36z"/><path fill="#e00028" d="M238 1014l8-96 24 100z"/><path fill="#f7ffff" d="M498 78l-28-16 84-36z"/><path fill="#cf9fc7" d="M370 654l64-36-136 32z"/><path fill="#6a7e49" d="M502 166l-16 76 212-116z"/><path fill="#fbd7e4" d="M110 462l12 52 12-20z"/><path fill="#4d3371" d="M226 574l-112 36h140z"/><path fill="#97ab8a" d="M86 146l-36 60 104 32z"/><path fill="#9b0042" d="M114 762l92-48-72 12z"/><path fill="#d3aed0" d="M446 1050l-28 36 8-128z"/><path fill="#cc0331" d="M414 902l-76-24 176-8z"/><path fill="#d78f77" d="M218 370l120-220-68 292z"/><path fill="#869d7d" d="M462 42l-12-88 52 112z"/><path fill="#bfceb7" d="M146 266l-64-12-24 60z"/><path fill="#f687aa" d="M478 422l-128 32 116 8z"/><path fill="#711967" d="M394 406l40 120-44-64z"/><path fill="#f0e0f4" d="M450 522l-20-36 12 52z"/><path fill="#e8053e" d="M246 570l-40-104 60 72z"/><path fill="#dee7f9" d="M178 438l24 48v-24z"/><path fill="#353573" d="M486 922l-28 28 12-112z"/><path fill="#ff0002" d="M190 530l4 32-36-36z"/><path fill="#fff" d="M62 22l60 96-164 72z"/><path fill="#577a24" d="M394 178l16-16-44-28z"/><path fill="#ecb4a0" d="M386 266l-68 16-84-44z"/><path fill="#eda580" d="M342 726l224-56-188 116z"/><path fill="#7559af" d="M114 638L98 490l-24 48z"/><path fill="#7b9a45" d="M382 306l20 28-88 40z"/><path fill="#ff0237" d="M190 782l-20-40 28 20z"/><path fill="#608623" d="M602 934l136-64 4-180z"/><path fill="#d4b6d7" d="M322 902l-52 16h100z"/><path fill="#f6fcff" d="M638 30l76-92h-68z"/><path fill="#676e93" d="M422 674l-92-4 4 32z"/><path fill="#937dad" d="M490 850l48 60-36-108z"/><path fill="#f2234f" d="M402 714l-44-8 20-104z"/><path fill="#aeacd0" d="M430 874l-4 48-20-88z"/><path fill="#c5c2d6" d="M634 626l48-16-116-16z"/><path fill="#85a073" d="M90 98l92-4-32-24z"/><path fill="#712d0f" d="M338 286l-52-8 48 44z"/><path fill="#afb0c2" d="M510 970l28-4 48 56z"/><path fill="#e2ccdf" d="M394 546l24 24-28-76z"/><path fill="#f4b09b" d="M294 690l16 56-24 52z"/><path fill="#96c346" d="M602 662l-16 156 156-120z"/><path fill="#427400" d="M18 222l-40 12h40z"/><path fill="#030008" d="M594 682l-36-32 44 20z"/><path fill="#fdffff" d="M38 14l184 8L26-62z"/><path fill="#e5b3a3" d="M242 194l16-68 104 84z"/><path fill="#ec1845" d="M518 578l52 32-56-64z"/><path fill="#eb0538" d="M134 634l-52 28 64-8z"/><path fill="#b37d45" d="M306 810l204-40-212 116z"/><path fill="#d1cbd0" d="M110 798L2 598l-20 148z"/><path fill="#feffff" d="M78 302l76 56 32-80z"/><path fill="#6a0013" d="M178 670l56-4-36 36z"/><path fill="#57488e" d="M246 502l76 96-40-104z"/><path fill="#dbe8de" d="M350 114V10l-16 48z"/><path fill="#e1c3d8" d="M122 714l-36 32 68-32z"/><path fill="#e4e9ec" d="M578 46l-12 80 24 16z"/><path fill="#55752a" d="M490 158l-12 24-16-32z"/><path fill="#cd0428" d="M306 658l-4 60 40 4z"/><path fill="#3c2f6f" d="M334 942l28 32 108-36z"/><path fill="#4f469f" d="M514 666l60-20-32-8z"/><path fill="#a9ac9f" d="M542 218h-28l28 100z"/><path fill="#567728" d="M66 26l12-12 20 24z"/><path fill="#f6194a" d="M338 510l4 28-104 16z"/><path fill="#f91154" d="M210 478l28-4-40-68z"/><path fill="#610533" d="M542 922l4 48-32-12z"/><path fill="#371500" d="M326 234l40 8-8-28z"/><path fill="#b49dbc" d="M270 486h-60l112-32z"/><path fill="#a7be83" d="M18 322l-80 104 144-32z"/><path fill="#ea2d56" d="M106 546l-16 20 40 36z"/><path fill="#471d3c" d="M214 670l-56-124 44 48z"/><path fill="#fff" d="M618 230l16 36h-36z"/><path fill="#99a5cf" d="M358 650l16 48-16 8z"/><path fill="#edb7b0" d="M266 338l4 32h80z"/><path fill="#c3002f" d="M502 862l32 80-68-76z"/><path fill="#a97746" d="M222 326l92 152-4-88z"/><path fill="#688f49" d="M342 82l68-140 24 92z"/><path fill="#c8749d" d="M178 594l48-60-88 56z"/><path fill="#cdd3ce" d="M742 54V-54L642 142z"/><path fill="#4b5c25" d="M670 134l-144 88 28 44z"/><path fill="#939739" d="M718 906l-192-24 216 132z"/><path fill="#344e99" d="M346 466l28 60-40-32z"/><path fill="#819673" d="M234 74l4-56h24z"/><path fill="#f4f3f9" d="M530 146l-36-12 16 24z"/><path fill="#68061f" d="M254 450l28-16 28 40z"/><path fill="#ec8eb6" d="M434 618l-8 44-12-80z"/><path fill="#f0ceda" d="M282 618l-4 16-16-28z"/><path fill="#b688b2" d="M214 658v-20l56 16z"/><path fill="#e4edeb" d="M442 314l76 8-168 88z"/><path fill="#95b57c" d="M442 338l12 44-52 28z"/><path fill="#a8b996" d="M442 262l8-60-96 4z"/><path fill="#6b2c67" d="M130 878l100-76h-76z"/><path fill="#7b5d5a" d="M326 102l-116 60 64-60z"/><path fill="#effbf7" d="M150 46L126 2 86 22z"/><path fill="#7f9045" d="M742 470V362l-228 32z"/><path fill="#bebbb2" d="M198 1086L26 794l148 132z"/><path fill="#c2774a" d="M486 786l72-140 52 80z"/><path fill="#6f8b57" d="M346 50l-48 24 24-28z"/><path fill="#525e39" d="M562 454l180 172-212-64z"/><path fill="#a90030" d="M286 1070l44 16-16-160z"/><path fill="#e81033" d="M202 718l52 80-36-28z"/><path fill="#d38960" d="M318 762L174 922l-40-52z"/><path fill="#71638f" d="M206 922v40l84 24z"/><path fill="#fff" d="M342 30l76-68-84-24z"/><path fill="#748252" d="M666 198l-16-92-60-8z"/><path fill="#d10233" d="M214 646l-16-48 72 48z"/><path fill="#bdc1da" d="M290 474l28 36 4 40z"/><path fill="#f1002f" d="M358 634l-8-36 60 4z"/><path fill="#d7b6a0" d="M554 614l-40 56-40-76z"/><path fill="#d5a38d" d="M270 366l-72-84 36-88z"/><path fill="#5d1b40" d="M466 798l-88 104-4-44z"/><path fill="#526dae" d="M174 710l-20 48-16-72z"/><path fill="#6d8d5a" d="M10-30l-72-28L62 46z"/><path fill="#ff2355" d="M426 442l4-24-68 24z"/><path fill="#667e43" d="M138 426l-76 96 36-144z"/><path fill="#46417d" d="M222 598l48 80-20 28z"/><path fill="#909365" d="M578 542l-28 32 68 24z"/><path fill="#960014" d="M478 1010l72 76-232-48z"/><path fill="#f20003" d="M242 698l-20 12 32 8z"/><path fill="#839e72" d="M186 74l4-32-60-28z"/><path fill="#c9cec3" d="M322-10l-56 76 40 28z"/><path fill="#ea0038" d="M294 622l-48-44 28 4z"/><path fill="#da0d34" d="M254 942l-44-24 80 12z"/><path fill="#380f25" d="M430 574l4-36 16 68z"/><path fill="#782d6f" d="M282 462l-68-16-8-56z"/><path fill="#687d39" d="M-62 394l92 124 12-96z"/><path fill="#feffff" d="M454 58v56l24 4z"/><path fill="#7b2625" d="M262 302l8 16 28-16z"/><path fill="#ff001c" d="M510 590l-12 4-8-24z"/><path fill="#f2fff9" d="M154 254l28-56-108 88z"/><path fill="#d41b54" d="M362 526v-60l24 68z"/><path fill="#648948" d="M414 226l-24 4 24 28z"/><path fill="#ff0b38" d="M450 578l24 16-16 24z"/><path fill="#bc002c" d="M386 990l28-28 4 52z"/><path fill="#ee001d" d="M166 726l-44 24-8-16z"/><path fill="#f9fffe" d="M230 46l-28 64-48-172z"/><path fill="#ccd7c9" d="M198 82l-40-28-36 100z"/><path fill="#fff" d="M206 166L78 94l148 20z"/><path fill="#aa9ebf" d="M234 966v-64l-12 32z"/><path fill="#a7bbe4" d="M214 802l-16-56 32 52z"/><path fill="#cbc4c4" d="M138 662L-14 766l-24-44z"/><path fill="#fe0019" d="M330 886l36-20 4 36z"/><path fill="#ff1237" d="M150 502l-4-36-20-4z"/><path fill="#4e681f" d="M526 138l36-8-16 68z"/><path fill="#233609" d="M534 566l44-72-48 36z"/><path fill="#e7cde1" d="M186 742l8-32 16 68z"/><path fill="#b2bcdd" d="M122 578l-60 32 28-28z"/><path fill="#cee1cd" d="M418 46l40-24-28 56z"/><path fill="#6d8a4a" d="M474 122l64 24-64-56z"/><path fill="#445d00" d="M610 338l-112 8 84 32z"/><path fill="#cc95b4" d="M202 670l-48-16h48z"/><path fill="#14498d" d="M466 498l-16-28 12-4z"/><path fill="#b0bf71" d="M674 310l60 56-156 16z"/><path fill="#a00017" d="M570 1058l-88 8 52-68z"/><path fill="#f50029" d="M370 662l24-20-52 16z"/><path fill="#bab9e2" d="M374 382l-32-28 32 76z"/><path fill="#8e946a" d="M566 486l-64-52 116-40z"/><path fill="#c1cfbf" d="M50 210l124-60-20 44z"/><path fill="#fff" d="M406 266l-12 68 96-76z"/><path fill="#e32442" d="M434 834l28 52-24 44z"/><path fill="#462474" d="M366 666l92-24-48 28z"/><path fill="#fff" d="M470 38l8-56 48-44z"/><path fill="#0d3d7a" d="M438 822l28 4 4 36z"/><path fill="#3b2668" d="M94 786l12-16-24-8z"/><path fill="#dcece4" d="M738 194l-28 32-68-32z"/><path fill="#133771" d="M270 934l48 16-48 24z"/><path fill="#2e64a2" d="M202 802h-52l20 36z"/><path fill="#ebb07b" d="M274 782l-40-36 52-16z"/><path fill="#dce3e2" d="M398 102l-12 20 60 8z"/><path fill="#647937" d="M434 62l-80 64 32-100z"/><path fill="#b1084d" d="M342 630l-20 12-4-80z"/><path fill="#aca8a2" d="M210 1002L-62 802l88 232z"/><path fill="#35568a" d="M306 614l-28-52 48 40z"/><path fill="#d6c7df" d="M578 654l-8-60-24 16z"/><path fill="#00327a" d="M490 986l40 24-52-8z"/><path fill="#819d6d" d="M90 222l36 8 56-32z"/><path fill="#aebb70" d="M446 414l32 24 56-80z"/><path fill="#4d7341" d="M506-54h32l-4 96z"/><path fill="#3c1c25" d="M238 698l-40-72 24 108z"/><path fill="#fff" d="M522 26l20 32-40 4z"/><path fill="#d6a1b9" d="M482 510l-84 20 48 4z"/><path fill="#e7deea" d="M590 66l-8-28h8z"/><path fill="#9bb786" d="M350 38l40 40-24 8z"/><path fill="#9696ca" d="M170 442l36-40-72 40z"/><path fill="#fff" d="M534 14l52-76h56z"/><path fill="#d7c1d7" d="M118 778l-12-48-4 76z"/><path fill="#dbe8db" d="M430 194l-48 32 28-48z"/><path fill="#c80031" d="M338 926l28-8v96z"/><path fill="#985f2b" d="M222 870l-48 56 164-64z"/><path fill="#a0574f" d="M258 790l-32-96v120z"/><path fill="#738c58" d="M178 58l-40 44-24-4z"/><path fill="#f30644" d="M550 638l12-16-24 8z"/><path fill="#e6bde0" d="M234 406l32 32-12-28z"/><path fill="#f5234c" d="M134 714l-28-4-24-56z"/><path fill="#a5448a" d="M398 414l-64 20 20-40z"/><path fill="#28340e" d="M622 522l20-88 40 100z"/><path fill="#865d3c" d="M382 194l-40 64 40-12z"/><path fill="#a7b58c" d="M550 258l108 16-80 12z"/><path fill="#f4002b" d="M178 678l12-68-28 32z"/><path fill="#88b01a" d="M214 310l8 48-64 68z"/><path fill="#5a7c37" d="M658 226l24-40-12-16z"/><path fill="#c71b51" d="M170 842l-28 24v-68z"/><path fill="#183695" d="M158 686l-16 24-20-12z"/><path fill="#d10000" d="M434 670h24l-12 32z"/><path fill="#d9c4d8" d="M154 618v40l-16-48z"/><path d="M314 730l-4-12h28z"/><path fill="#6a589c" d="M242 602l-40-100v60z"/><path fill="#7f8875" d="M662 46l76-56-104 140z"/><path fill="#e21d4b" d="M446 970l-16 72 100-120z"/><path fill="#3b316d" d="M458 950l60 32-44-56z"/><path fill="#fff" d="M30 26l104 144-80-40z"/><path fill="#cad8c9" d="M614 110l-16-24 4 56z"/><path fill="#af0018" d="M430 854l12-40-28 16z"/><path fill="#c6d2c0" d="M506 238l16-40-4 48z"/><path fill="#dc0950" d="M166 702l-24-24 8-24z"/><path fill="#e9eeff" d="M666 34l76-76-40-20z"/><path fill="#c0d383" d="M54 498l-64 60 80 44z"/><path fill="#e20730" d="M442 602l-20-48 4 60z"/><path fill="#cdb2db" d="M410 426l8 40 28 28z"/><path fill="#b1c4a4" d="M102 354l-8-20-40 64z"/><path fill="#cba88d" d="M314 474l-12-28 20-16z"/><path fill="#829c56" d="M490 286l36 60-28-100z"/><path fill="#c1a3bc" d="M222 714l-88-4 40-12z"/><path fill="#e4eae8" d="M110 214l12-12 20 36z"/><path fill="#ff0020" d="M122 518l4-8 24 12z"/><path fill="#935b35" d="M258 370l64 68 12-60z"/><path fill="#95997f" d="M346 86l-40-20 68 84z"/><path fill="#e1a0b5" d="M418 410l76 80-24-52z"/><path fill="#d7c5da" d="M302 1022l48 64-16-76z"/><path fill="#74194b" d="M302 978l-32 100v-96z"/><path fill="#e1c9df" d="M194 478l32 4-24 16z"/><path fill="#95a885" d="M126 210l-16-52-40-12z"/><path fill="#c28259" d="M302 382l72-108-20 68z"/><path fill="#38408a" d="M126 630l-24-4-4-48z"/><path fill="#b4cc75" d="M662 382l-12 44 72-60z"/><path fill="#67704f" d="M642 470l12-80-152 108z"/><path fill="#637c48" d="M122 42l36 48-8-44z"/><path fill="#250000" d="M330 422l8-36 4 32z"/><path fill="#858f74" d="M530 250l20-64 16 24z"/><path fill="#7f6b55" d="M206 178v84l28-80z"/><path fill="#c40031" d="M306 470l-4 16 60-12z"/><path fill="#93a1d2" d="M434 910l-72 8 20-16z"/><path fill="#d80d4b" d="M442 466l-12-20 32 8z"/><path fill="#4b4b92" d="M134 458h40l8-36z"/><path fill="#617b44" d="M570 158l40 68 48-12z"/><path fill="#fff" d="M42 198L18 54l-48 180z"/><path d="M342 782l-32 12 24 4z"/><path fill="#5b7f30" d="M558 74l-56 12-24 44z"/><path fill="#424689" d="M398 606l-36-60 20 4z"/><path fill="#809841" d="M194 230l-24 40 36 44z"/><path fill="#71994f" d="M342 350l48 8-24 16z"/><path fill="#d67698" d="M70 518l44-8 20-76z"/><path fill="#c1c0df" d="M198 558l60 16-32-20z"/><path fill="#b08495" d="M306 614l52-36 16 12z"/><path fill="#a32c70" d="M134 790l28-36 28 32z"/><path fill="#c28255" d="M542 718l-212 68h172z"/><path fill="#a6afca" d="M526 534l-24-12-40 20z"/><path fill="#a5c85e" d="M598 722l96 92-80-192z"/><path fill="#c0aac5" d="M410 562l-4 32 20 28z"/><path fill="#e1f2eb" d="M138 82l-8-20-48-12z"/><path fill="#9ab955" d="M502 790l72-20-36 120z"/><path fill="#f2fef6" d="M450 110l-4 20 44-24z"/><path fill="#9498ae" d="M418 866l28-4-40-16z"/><path fill="#7c4827" d="M390 790l64-4 8 20z"/><path fill="#71194b" d="M186 926l36-24v36z"/><path fill="#5c331c" d="M250 230h32l8-32z"/><path fill="#748728" d="M510 362l-24 24-8-44z"/><path fill="#938091" d="M478 954l-48 16-12-16z"/><path fill="#611e57" d="M134 522l56 72-20-48z"/><path fill="#e8effa" d="M-62 6l88 28-88-96z"/><path fill="#bcacd8" d="M194 726l-48 24h32z"/><path fill="#d90037" d="M410 618l4-28h-24z"/><path fill="#ff000e" d="M386 690l-16 20 32-4z"/><path fill="#000d00" d="M582 226l4-12-24-12z"/><path fill="#5e1247" d="M106 822l-16 4 12-24z"/><path fill="#fff" d="M2 338l76-132-72 64z"/><path fill="#90a07d" d="M310 34l4-52-52 60z"/><path fill="#d92158" d="M270 478l12-24 20 76z"/><path fill="#ef5e7e" d="M94 598l-16 40-4-100z"/><path fill="#004594" d="M406 474l16 16-16-4z"/><path fill="#f2003a" d="M306 658l-32 12 52 4z"/><path fill="#b7d775" d="M718 630l-156-16 108 68z"/><path fill="#d5bfdd" d="M130 502l28 20-20-32z"/><path fill="#ef2857" d="M90 702l-12 16 20 24z"/><path fill="#afbba6" d="M206 98l-8-16-48 20z"/><path fill="#363d6e" d="M478 594l-4-36 24 4z"/><path fill="#b4678e" d="M438 922l-4-12 44-16z"/><path fill="#c70040" d="M182 458l16 28-48-16z"/><path fill="#ff1b45" d="M414 502l4 52-24-56z"/><path fill="#980026" d="M434 978l4-56 20-8z"/><path fill="#788f25" d="M482 430l112-68 4 36z"/><path fill="#d4a08f" d="M474 610l96-36-108 80z"/><path fill="#879f66" d="M454 294l60-8 52 48z"/><path fill="#acb79e" d="M298-62l120 92-28-92z"/><path fill="#9f0f36" d="M282 682l-44 56 52-16z"/><path fill="#97afc4" d="M266 454l36 24-28-8z"/><path fill="#8ea570" d="M434 138h40l-52-16z"/><path fill="#c59ed1" d="M246 414l-28-52-4 20z"/><path fill="#591c49" d="M274 446l-44 24 48-4z"/><path fill="#3a621b" d="M650 230l-24 4 16-12z"/><path fill="#769260" d="M486 50l20-20-64 16z"/><path fill="#ff002a" d="M130 550l16 36 16-28z"/><path fill="#9d3167" d="M250 486l-12 52-12-20z"/><path fill="#d5a78e" d="M326 318l-92 20 24-24z"/><path fill="#c5c8bd" d="M50 794l64 44 4 48z"/><path fill="#fff" d="M462 226l12 64 8-92z"/><path fill="#d2e1d7" d="M378 298l32-40-20-8z"/><path fill="#9e5031" d="M262 282l-8 28 32-40z"/><path fill="#cccfc7" d="M526 98l-44 52 52-36z"/><path fill="#b46f46" d="M494 618l-32 36-4 36z"/><path fill="#4a5c32" d="M542 466l-48 8 12 44z"/><path fill="#07237b" d="M406 958l-8-40-20 40z"/><path fill="#5e2648" d="M126 870l-4-12 32 20z"/><path fill="#ca1941" d="M238 622l-48-64 24 92z"/><path fill="#fff" d="M82 18L-2-62l264 52z"/><path fill="#352c80" d="M222 598l8-24 24 68z"/><path fill="#d9385f" d="M182 942l12 84 8-52z"/><path fill="#537454" d="M50 10v-72H30z"/><path fill="#b90533" d="M230 938l80-4-64-16z"/><path fill="#b0c0a6" d="M642 218l-16-12 8-44z"/><path fill="#cbd8c7" d="M542 286l-20 20 20-44z"/><path fill="#530059" d="M414 670l-4 32 20 4z"/><path fill="#77935b" d="M502 146l-36 20-20 40z"/><path fill="#e60633" d="M442 482l16 56v-44z"/><path fill="#475c90" d="M330 694l20 4-24-72z"/><path fill="#f00024" d="M246 638l4-24 20 32z"/><path fill="#125f52" d="M546 1002l28 84h-44z"/><path fill="#90afdd" d="M422 922v40l12 4z"/><path fill="#68824b" d="M510 94l-28-8 28 48z"/><path fill="#7a9063" d="M638 66l-40-20-36 44z"/><path fill="#f9fafe" d="M310 50l16-12-12-24z"/><path fill="#ff002c" d="M242 562l-4-44 32 36z"/><path fill="#fcffff" d="M450 354l36-40-52 4z"/><path fill="#f1fbf1" d="M406 218l56-76-16 52z"/><path fill="#caade5" d="M198 1002l72 84 104-20z"/><path fill="#a7c094" d="M494 162l20 12-36 68z"/><path fill="#3b469b" d="M98 502v44l-12-44z"/><path fill="#d9c0d6" d="M122 522l8 28-8 28z"/><path fill="#75b0d7" d="M338 966l-16-28v40z"/><path fill="#8ba176" d="M106 254l-24 20 4-20z"/><path fill="#46720f" d="M642 54l16 16-12-28z"/><path fill="#e90019" d="M402 870l4 32 8-16z"/><path fill="#8480bb" d="M458 622l-12-12-12 8z"/><path fill="#eff3f1" d="M626 90V50l20 52z"/><path fill="#5c7536" d="M526 78l16 56 12-52z"/><path fill="#4a650b" d="M570 374l-24-52-36 80z"/><path fill="#e8b6c6" d="M570 626l-40-4-20-48z"/><path fill="#457215" d="M374-50L234 6l-28-56z"/><path fill="#d9e2df" d="M678 170l64 12-60-108z"/><path fill="#fff" d="M486 54l-36 8 16 20z"/><path fill="#70902f" d="M346-62l-36 92 72-76z"/><path fill="#d19c87" d="M374 214l-20-60-32 60z"/><path fill="#7f9241" d="M10 346l32 16 12-16z"/><path fill="#90977f" d="M562 186l-8-28h60z"/><path fill="#4c6ead" d="M398 418l-32 8 4-20z"/><path fill="#616742" d="M598-62h-32l8 112z"/><path fill="#7c5362" d="M362 954l20-32v80z"/><path fill="#d2a28a" d="M238 238l-4-84 36-20z"/><path fill="#91a77d" d="M410 242l4-48-16 32z"/><path fill="#e20e4a" d="M402 454h16l4 20z"/><path fill="#e086a4" d="M430 686l16 20-16-48z"/><path fill="#db0029" d="M246 702l-20-4 20 28z"/><path fill="#ebb7d0" d="M510 942h12l-20-24z"/><path fill="#ad0033" d="M398 1002l16-80 4 44z"/><path fill="#a1b75d" d="M666 898l-92-4-52-48z"/><path fill="#e10016" d="M366 978l-32 4v32z"/><path fill="#c9a3bf" d="M482 870l28-40-8-16z"/></g></svg>